<svg width="283" height="158" viewBox="0 0 283 158" fill="none" xmlns="http://www.w3.org/2000/svg">
<rect x="0.507141" y="30.3566" width="21.7609" height="22.3279" fill="#9C645C"/>
<rect x="0.442627" y="68.0211" width="22.1455" height="21.0717" fill="#442C61"/>
<path d="M41.6458 78.5229H40.7651C40.713 78.2696 40.6219 78.047 40.4917 77.8553C40.3638 77.6635 40.2076 77.5025 40.0229 77.3723C39.8406 77.2398 39.6382 77.1403 39.4157 77.074C39.1931 77.0077 38.9611 76.9746 38.7197 76.9746C38.2793 76.9746 37.8804 77.0859 37.5229 77.3084C37.1678 77.5309 36.8849 77.8588 36.6742 78.2921C36.4659 78.7253 36.3617 79.2568 36.3617 79.8865C36.3617 80.5163 36.4659 81.0478 36.6742 81.481C36.8849 81.9142 37.1678 82.2421 37.5229 82.4647C37.8804 82.6872 38.2793 82.7985 38.7197 82.7985C38.9611 82.7985 39.1931 82.7653 39.4157 82.699C39.6382 82.6327 39.8406 82.5345 40.0229 82.4043C40.2076 82.2717 40.3638 82.1095 40.4917 81.9178C40.6219 81.7237 40.713 81.5011 40.7651 81.2502H41.6458C41.5795 81.6219 41.4588 81.9545 41.2836 82.248C41.1084 82.5416 40.8906 82.7914 40.6302 82.9973C40.3698 83.2009 40.0774 83.356 39.753 83.4625C39.4311 83.5691 39.0866 83.6223 38.7197 83.6223C38.0994 83.6223 37.5478 83.4708 37.0648 83.1678C36.5819 82.8648 36.2019 82.4339 35.9249 81.8752C35.6479 81.3165 35.5094 80.6536 35.5094 79.8865C35.5094 79.1195 35.6479 78.4566 35.9249 77.8979C36.2019 77.3392 36.5819 76.9083 37.0648 76.6053C37.5478 76.3023 38.0994 76.1507 38.7197 76.1507C39.0866 76.1507 39.4311 76.204 39.753 76.3105C40.0774 76.4171 40.3698 76.5733 40.6302 76.7793C40.8906 76.9829 41.1084 77.2315 41.2836 77.525C41.4588 77.8162 41.5795 78.1488 41.6458 78.5229ZM45.1712 83.6365C44.6788 83.6365 44.2467 83.5193 43.875 83.285C43.5057 83.0506 43.2169 82.7227 43.0085 82.3013C42.8026 81.8799 42.6996 81.3875 42.6996 80.824C42.6996 80.2559 42.8026 79.7599 43.0085 79.3361C43.2169 78.9123 43.5057 78.5833 43.875 78.3489C44.2467 78.1145 44.6788 77.9973 45.1712 77.9973C45.6636 77.9973 46.0945 78.1145 46.4638 78.3489C46.8355 78.5833 47.1243 78.9123 47.3303 79.3361C47.5386 79.7599 47.6428 80.2559 47.6428 80.824C47.6428 81.3875 47.5386 81.8799 47.3303 82.3013C47.1243 82.7227 46.8355 83.0506 46.4638 83.285C46.0945 83.5193 45.6636 83.6365 45.1712 83.6365ZM45.1712 82.8837C45.5452 82.8837 45.853 82.7878 46.0945 82.596C46.336 82.4043 46.5147 82.1522 46.6307 81.8397C46.7467 81.5272 46.8047 81.1886 46.8047 80.824C46.8047 80.4594 46.7467 80.1197 46.6307 79.8049C46.5147 79.49 46.336 79.2355 46.0945 79.0414C45.853 78.8472 45.5452 78.7502 45.1712 78.7502C44.7971 78.7502 44.4894 78.8472 44.2479 79.0414C44.0064 79.2355 43.8277 79.49 43.7117 79.8049C43.5957 80.1197 43.5377 80.4594 43.5377 80.824C43.5377 81.1886 43.5957 81.5272 43.7117 81.8397C43.8277 82.1522 44.0064 82.4043 44.2479 82.596C44.4894 82.7878 44.7971 82.8837 45.1712 82.8837ZM48.9221 83.5229V78.0684H49.7317V78.9206H49.8028C49.9164 78.6294 50.0999 78.4033 50.3532 78.2424C50.6065 78.079 50.9107 77.9973 51.2658 77.9973C51.6257 77.9973 51.9252 78.079 52.1643 78.2424C52.4057 78.4033 52.5939 78.6294 52.7289 78.9206H52.7857C52.9254 78.6389 53.1349 78.4152 53.4143 78.2495C53.6936 78.0814 54.0286 77.9973 54.4192 77.9973C54.9069 77.9973 55.3058 78.15 55.616 78.4554C55.9261 78.7585 56.0812 79.2308 56.0812 79.8723V83.5229H55.2431V79.8723C55.2431 79.4699 55.133 79.1822 54.9128 79.0094C54.6927 78.8366 54.4334 78.7502 54.1351 78.7502C53.7516 78.7502 53.4545 78.8662 53.2438 79.0982C53.0331 79.3278 52.9278 79.619 52.9278 79.9718V83.5229H52.0755V79.7871C52.0755 79.477 51.9749 79.2272 51.7736 79.0378C51.5724 78.846 51.3132 78.7502 50.9959 78.7502C50.7781 78.7502 50.5745 78.8082 50.3851 78.9242C50.1981 79.0402 50.0466 79.2012 49.9306 79.4071C49.817 79.6107 49.7601 79.8463 49.7601 80.1138V83.5229H48.9221ZM57.6135 83.5229V78.0684H58.4515V83.5229H57.6135ZM58.0396 77.1593C57.8763 77.1593 57.7354 77.1036 57.617 76.9924C57.501 76.8811 57.443 76.7473 57.443 76.5911C57.443 76.4348 57.501 76.3011 57.617 76.1898C57.7354 76.0785 57.8763 76.0229 58.0396 76.0229C58.203 76.0229 58.3426 76.0785 58.4587 76.1898C58.577 76.3011 58.6362 76.4348 58.6362 76.5911C58.6362 76.7473 58.577 76.8811 58.4587 76.9924C58.3426 77.1036 58.203 77.1593 58.0396 77.1593ZM62.0462 83.6365C61.5916 83.6365 61.1904 83.5217 60.8424 83.2921C60.4943 83.0601 60.2221 82.7334 60.0256 82.312C59.8291 81.8882 59.7308 81.3875 59.7308 80.8098C59.7308 80.2369 59.8291 79.7398 60.0256 79.3184C60.2221 78.8969 60.4955 78.5714 60.8459 78.3418C61.1963 78.1121 61.6011 77.9973 62.0604 77.9973C62.4155 77.9973 62.696 78.0565 62.902 78.1749C63.1103 78.2909 63.269 78.4235 63.3779 78.5726C63.4891 78.7194 63.5755 78.8401 63.6371 78.9348H63.7081V76.2502H64.5462V83.5229H63.7365V82.6848H63.6371C63.5755 82.7843 63.4879 82.9097 63.3743 83.0612C63.2607 83.2104 63.0985 83.3442 62.8878 83.4625C62.6771 83.5785 62.3966 83.6365 62.0462 83.6365ZM62.1598 82.8837C62.496 82.8837 62.7801 82.7961 63.0121 82.6209C63.2441 82.4434 63.4205 82.1983 63.5412 81.8858C63.662 81.571 63.7223 81.2076 63.7223 80.7956C63.7223 80.3884 63.6631 80.0321 63.5448 79.7267C63.4264 79.419 63.2512 79.1799 63.0192 79.0094C62.7872 78.8366 62.5007 78.7502 62.1598 78.7502C61.8047 78.7502 61.5088 78.8413 61.272 79.0236C61.0377 79.2035 60.8613 79.4486 60.7429 79.7587C60.6269 80.0665 60.5689 80.4121 60.5689 80.7956C60.5689 81.1839 60.6281 81.5366 60.7465 81.8539C60.8672 82.1687 61.0448 82.4197 61.2791 82.6067C61.5159 82.7914 61.8094 82.8837 62.1598 82.8837ZM67.8026 83.6507C67.4569 83.6507 67.1433 83.5856 66.8615 83.4554C66.5798 83.3228 66.3561 83.1323 66.1904 82.8837C66.0246 82.6327 65.9418 82.3297 65.9418 81.9746C65.9418 81.6621 66.0033 81.4088 66.1264 81.2147C66.2495 81.0182 66.4141 80.8643 66.6201 80.753C66.826 80.6417 67.0533 80.5589 67.3019 80.5044C67.5528 80.4476 67.8049 80.4026 68.0583 80.3695C68.3897 80.3269 68.6584 80.2949 68.8644 80.2736C69.0727 80.2499 69.2242 80.2109 69.3189 80.1564C69.416 80.102 69.4645 80.0073 69.4645 79.8723V79.8439C69.4645 79.4935 69.3686 79.2213 69.1769 79.0272C68.9875 78.833 68.6998 78.736 68.3139 78.736C67.9138 78.736 67.6002 78.8236 67.3729 78.9987C67.1456 79.1739 66.9858 79.361 66.8935 79.5598L66.098 79.2757C66.2401 78.9443 66.4295 78.6862 66.6662 78.5016C66.9053 78.3146 67.1657 78.1844 67.4475 78.111C67.7316 78.0352 68.0109 77.9973 68.2855 77.9973C68.4607 77.9973 68.662 78.0186 68.8892 78.0612C69.1189 78.1015 69.3402 78.1855 69.5533 78.3134C69.7687 78.4412 69.9475 78.6342 70.0895 78.8922C70.2316 79.1503 70.3026 79.4959 70.3026 79.9291V83.5229H69.4645V82.7843H69.4219C69.3651 82.9026 69.2704 83.0293 69.1378 83.1642C69.0052 83.2992 68.8289 83.414 68.6087 83.5087C68.3885 83.6034 68.1198 83.6507 67.8026 83.6507ZM67.9304 82.8979C68.2619 82.8979 68.5412 82.8328 68.7685 82.7026C68.9981 82.5724 69.171 82.4043 69.287 82.1983C69.4053 81.9924 69.4645 81.7757 69.4645 81.5485V80.7814C69.429 80.824 69.3509 80.8631 69.2301 80.8986C69.1118 80.9317 68.9745 80.9613 68.8182 80.9874C68.6643 81.0111 68.514 81.0324 68.3672 81.0513C68.2228 81.0679 68.1056 81.0821 68.0156 81.0939C67.7978 81.1223 67.5942 81.1685 67.4049 81.2324C67.2178 81.294 67.0663 81.3875 66.9503 81.513C66.8367 81.6361 66.7799 81.8041 66.7799 82.0172C66.7799 82.3084 66.8876 82.5286 67.103 82.6777C67.3208 82.8245 67.5966 82.8979 67.9304 82.8979Z" fill="white"/>
<rect x="0.507141" y="104.783" width="21.7609" height="22.3279" fill="#D0B7B0"/>
<path d="M34.1861 112.963C34.1435 112.603 33.9706 112.324 33.6676 112.125C33.3646 111.926 32.9929 111.827 32.5526 111.827C32.2306 111.827 31.9489 111.879 31.7074 111.983C31.4683 112.087 31.2813 112.23 31.1463 112.413C31.0137 112.595 30.9474 112.802 30.9474 113.034C30.9474 113.228 30.9936 113.395 31.0859 113.535C31.1806 113.672 31.3014 113.787 31.4482 113.879C31.5949 113.969 31.7488 114.044 31.9098 114.103C32.0708 114.16 32.2188 114.206 32.3537 114.242L33.0923 114.44C33.2817 114.49 33.4924 114.559 33.7244 114.646C33.9588 114.734 34.1825 114.854 34.3956 115.005C34.611 115.154 34.7886 115.346 34.9283 115.58C35.0679 115.815 35.1378 116.102 35.1378 116.443C35.1378 116.836 35.0348 117.191 34.8288 117.509C34.6252 117.826 34.3269 118.078 33.9339 118.265C33.5433 118.452 33.0687 118.546 32.5099 118.546C31.9891 118.546 31.5381 118.462 31.157 118.293C30.7782 118.125 30.4799 117.891 30.2621 117.59C30.0466 117.29 29.9247 116.94 29.8963 116.543H30.8054C30.8291 116.817 30.9214 117.045 31.0824 117.225C31.2457 117.402 31.4517 117.535 31.7003 117.622C31.9512 117.707 32.2211 117.75 32.5099 117.75C32.8461 117.75 33.148 117.696 33.4155 117.587C33.683 117.475 33.8949 117.322 34.0511 117.125C34.2074 116.926 34.2855 116.694 34.2855 116.429C34.2855 116.188 34.218 115.991 34.0831 115.84C33.9482 115.688 33.7706 115.565 33.5504 115.47C33.3303 115.376 33.0923 115.293 32.8366 115.222L31.9418 114.966C31.3736 114.803 30.9238 114.569 30.5923 114.266C30.2609 113.963 30.0952 113.567 30.0952 113.077C30.0952 112.67 30.2053 112.315 30.4254 112.011C30.648 111.706 30.9463 111.469 31.3203 111.301C31.6967 111.131 32.117 111.046 32.581 111.046C33.0497 111.046 33.4664 111.13 33.831 111.298C34.1955 111.463 34.4844 111.691 34.6974 111.98C34.9129 112.268 35.0265 112.596 35.0384 112.963H34.1861ZM38.8443 112.963V113.673H36.0176V112.963H38.8443ZM36.8414 111.656H37.6795V116.855C37.6795 117.092 37.7138 117.27 37.7825 117.388C37.8535 117.504 37.9435 117.582 38.0524 117.622C38.1636 117.66 38.2808 117.679 38.4039 117.679C38.4963 117.679 38.572 117.674 38.6312 117.665C38.6904 117.653 38.7377 117.644 38.7733 117.636L38.9437 118.389C38.8869 118.411 38.8076 118.432 38.7058 118.453C38.604 118.477 38.475 118.489 38.3187 118.489C38.082 118.489 37.85 118.438 37.6227 118.336C37.3978 118.234 37.2108 118.079 37.0616 117.871C36.9148 117.663 36.8414 117.4 36.8414 117.082V111.656ZM40.1049 118.418V112.963H40.9146V113.787H40.9714C41.0708 113.517 41.2508 113.298 41.5112 113.13C41.7716 112.962 42.0652 112.878 42.3919 112.878C42.4534 112.878 42.5304 112.879 42.6227 112.882C42.715 112.884 42.7849 112.887 42.8322 112.892V113.744C42.8038 113.737 42.7387 113.727 42.6369 113.712C42.5375 113.696 42.4321 113.688 42.3208 113.688C42.0557 113.688 41.819 113.743 41.6106 113.855C41.4047 113.963 41.2413 114.115 41.1206 114.309C41.0022 114.501 40.943 114.72 40.943 114.966V118.418H40.1049ZM45.9466 118.531C45.421 118.531 44.9676 118.415 44.5865 118.183C44.2077 117.949 43.9153 117.622 43.7093 117.203C43.5057 116.782 43.4039 116.292 43.4039 115.733C43.4039 115.174 43.5057 114.682 43.7093 114.256C43.9153 113.827 44.2018 113.493 44.5687 113.254C44.938 113.013 45.3689 112.892 45.8613 112.892C46.1454 112.892 46.426 112.94 46.7029 113.034C46.9799 113.129 47.2321 113.283 47.4593 113.496C47.6866 113.707 47.8677 113.986 48.0027 114.334C48.1376 114.682 48.2051 115.11 48.2051 115.619V115.975H44.0005V115.25H47.3528C47.3528 114.942 47.2913 114.668 47.1681 114.426C47.0474 114.185 46.8746 113.994 46.6497 113.855C46.4271 113.715 46.1644 113.645 45.8613 113.645C45.5275 113.645 45.2387 113.728 44.9949 113.894C44.7534 114.057 44.5675 114.27 44.4373 114.533C44.3071 114.796 44.242 115.077 44.242 115.378V115.861C44.242 116.273 44.313 116.622 44.4551 116.908C44.5995 117.193 44.7995 117.409 45.0552 117.558C45.3109 117.705 45.608 117.779 45.9466 117.779C46.1667 117.779 46.3656 117.748 46.5431 117.686C46.7231 117.622 46.8781 117.528 47.0083 117.402C47.1386 117.274 47.2392 117.116 47.3102 116.926L48.1199 117.154C48.0346 117.428 47.8914 117.67 47.6902 117.878C47.4889 118.084 47.2404 118.245 46.9444 118.361C46.6485 118.475 46.3159 118.531 45.9466 118.531ZM51.085 118.546C50.7394 118.546 50.4257 118.48 50.144 118.35C49.8623 118.218 49.6386 118.027 49.4728 117.779C49.3071 117.528 49.2243 117.225 49.2243 116.869C49.2243 116.557 49.2858 116.304 49.4089 116.109C49.532 115.913 49.6966 115.759 49.9025 115.648C50.1085 115.537 50.3358 115.454 50.5843 115.399C50.8353 115.342 51.0874 115.297 51.3407 115.264C51.6722 115.222 51.9409 115.19 52.1468 115.168C52.3552 115.145 52.5067 115.106 52.6014 115.051C52.6984 114.997 52.747 114.902 52.747 114.767V114.739C52.747 114.388 52.6511 114.116 52.4593 113.922C52.2699 113.728 51.9823 113.631 51.5964 113.631C51.1963 113.631 50.8826 113.718 50.6554 113.894C50.4281 114.069 50.2683 114.256 50.176 114.455L49.3805 114.171C49.5225 113.839 49.7119 113.581 49.9487 113.396C50.1878 113.209 50.4482 113.079 50.7299 113.006C51.014 112.93 51.2934 112.892 51.568 112.892C51.7432 112.892 51.9444 112.913 52.1717 112.956C52.4013 112.996 52.6227 113.08 52.8358 113.208C53.0512 113.336 53.2299 113.529 53.372 113.787C53.514 114.045 53.585 114.391 53.585 114.824V118.418H52.747V117.679H52.7044C52.6475 117.797 52.5529 117.924 52.4203 118.059C52.2877 118.194 52.1113 118.309 51.8912 118.404C51.671 118.498 51.4023 118.546 51.085 118.546ZM51.2129 117.793C51.5443 117.793 51.8237 117.728 52.051 117.597C52.2806 117.467 52.4534 117.299 52.5694 117.093C52.6878 116.887 52.747 116.671 52.747 116.443V115.676C52.7115 115.719 52.6333 115.758 52.5126 115.793C52.3942 115.827 52.2569 115.856 52.1007 115.882C51.9468 115.906 51.7965 115.927 51.6497 115.946C51.5053 115.963 51.3881 115.977 51.2981 115.989C51.0803 116.017 50.8767 116.063 50.6873 116.127C50.5003 116.189 50.3488 116.282 50.2328 116.408C50.1191 116.531 50.0623 116.699 50.0623 116.912C50.0623 117.203 50.17 117.423 50.3855 117.573C50.6033 117.719 50.8791 117.793 51.2129 117.793ZM55.1147 118.418V112.963H55.9244V113.815H55.9954C56.109 113.524 56.2925 113.298 56.5458 113.137C56.7991 112.974 57.1033 112.892 57.4585 112.892C57.8183 112.892 58.1178 112.974 58.3569 113.137C58.5984 113.298 58.7866 113.524 58.9215 113.815H58.9783C59.118 113.534 59.3275 113.31 59.6069 113.144C59.8862 112.976 60.2212 112.892 60.6119 112.892C61.0996 112.892 61.4985 113.045 61.8086 113.35C62.1187 113.653 62.2738 114.126 62.2738 114.767V118.418H61.4357V114.767C61.4357 114.365 61.3256 114.077 61.1055 113.904C60.8853 113.731 60.6261 113.645 60.3278 113.645C59.9442 113.645 59.6471 113.761 59.4364 113.993C59.2257 114.223 59.1204 114.514 59.1204 114.867V118.418H58.2681V114.682C58.2681 114.372 58.1675 114.122 57.9663 113.933C57.765 113.741 57.5058 113.645 57.1886 113.645C56.9708 113.645 56.7672 113.703 56.5778 113.819C56.3907 113.935 56.2392 114.096 56.1232 114.302C56.0096 114.506 55.9528 114.741 55.9528 115.009V118.418H55.1147ZM63.8061 118.418V112.963H64.6442V118.418H63.8061ZM64.2322 112.054C64.0689 112.054 63.928 111.998 63.8097 111.887C63.6937 111.776 63.6357 111.642 63.6357 111.486C63.6357 111.33 63.6937 111.196 63.8097 111.085C63.928 110.973 64.0689 110.918 64.2322 110.918C64.3956 110.918 64.5353 110.973 64.6513 111.085C64.7696 111.196 64.8288 111.33 64.8288 111.486C64.8288 111.642 64.7696 111.776 64.6513 111.887C64.5353 111.998 64.3956 112.054 64.2322 112.054ZM67.0172 115.136V118.418H66.1792V112.963H66.9888V113.815H67.0598C67.1877 113.538 67.3818 113.316 67.6422 113.148C67.9026 112.977 68.2388 112.892 68.6507 112.892C69.0201 112.892 69.3432 112.968 69.6202 113.119C69.8972 113.269 70.1126 113.496 70.2665 113.801C70.4204 114.104 70.4973 114.488 70.4973 114.952V118.418H69.6593V115.009C69.6593 114.58 69.548 114.246 69.3255 114.007C69.1029 113.766 68.7975 113.645 68.4093 113.645C68.1417 113.645 67.9026 113.703 67.6919 113.819C67.4836 113.935 67.3191 114.104 67.1983 114.327C67.0776 114.549 67.0172 114.819 67.0172 115.136ZM74.2305 120.577C73.8256 120.577 73.4776 120.525 73.1864 120.421C72.8952 120.319 72.6526 120.184 72.4585 120.016C72.2667 119.85 72.114 119.672 72.0004 119.483L72.668 119.014C72.7437 119.114 72.8396 119.227 72.9556 119.355C73.0716 119.485 73.2302 119.598 73.4315 119.693C73.6351 119.79 73.9014 119.838 74.2305 119.838C74.6708 119.838 75.0342 119.732 75.3207 119.519C75.6071 119.306 75.7504 118.972 75.7504 118.517V117.409H75.6793C75.6178 117.509 75.5302 117.632 75.4165 117.779C75.3053 117.923 75.1443 118.052 74.9336 118.166C74.7253 118.277 74.4435 118.332 74.0884 118.332C73.6481 118.332 73.2527 118.228 72.9023 118.02C72.5543 117.812 72.2785 117.509 72.0749 117.111C71.8737 116.713 71.7731 116.23 71.7731 115.662C71.7731 115.103 71.8713 114.617 72.0678 114.203C72.2643 113.786 72.5378 113.464 72.8881 113.237C73.2385 113.007 73.6433 112.892 74.1026 112.892C74.4577 112.892 74.7395 112.951 74.9478 113.07C75.1585 113.186 75.3195 113.318 75.4308 113.467C75.5444 113.614 75.632 113.735 75.6935 113.83H75.7788V112.963H76.5884V118.574C76.5884 119.043 76.4819 119.424 76.2688 119.717C76.0581 120.013 75.774 120.23 75.4165 120.367C75.0614 120.507 74.6661 120.577 74.2305 120.577ZM74.2021 117.58C74.5382 117.58 74.8223 117.503 75.0543 117.349C75.2863 117.195 75.4627 116.974 75.5835 116.685C75.7042 116.396 75.7646 116.05 75.7646 115.648C75.7646 115.255 75.7054 114.908 75.587 114.607C75.4686 114.307 75.2934 114.071 75.0614 113.901C74.8294 113.73 74.543 113.645 74.2021 113.645C73.8469 113.645 73.551 113.735 73.3143 113.915C73.0799 114.095 72.9035 114.336 72.7852 114.639C72.6692 114.942 72.6112 115.279 72.6112 115.648C72.6112 116.027 72.6703 116.362 72.7887 116.653C72.9094 116.942 73.087 117.169 73.3214 117.335C73.5581 117.498 73.8517 117.58 74.2021 117.58ZM81.9862 114.185L81.2333 114.398C81.186 114.272 81.1161 114.15 81.0238 114.032C80.9338 113.911 80.8107 113.812 80.6545 113.734C80.4982 113.656 80.2982 113.617 80.0543 113.617C79.7205 113.617 79.4424 113.694 79.2198 113.847C78.9996 113.999 78.8896 114.192 78.8896 114.426C78.8896 114.635 78.9653 114.799 79.1168 114.92C79.2683 115.041 79.5051 115.141 79.8271 115.222L80.6367 115.421C81.1244 115.539 81.4878 115.72 81.7269 115.964C81.966 116.205 82.0856 116.517 82.0856 116.898C82.0856 117.21 81.9956 117.49 81.8157 117.736C81.6381 117.982 81.3896 118.176 81.07 118.318C80.7504 118.46 80.3787 118.531 79.9549 118.531C79.3986 118.531 78.9381 118.411 78.5735 118.169C78.2089 117.928 77.9781 117.575 77.881 117.111L78.6765 116.912C78.7522 117.206 78.8955 117.426 79.1062 117.573C79.3192 117.719 79.5974 117.793 79.9407 117.793C80.3313 117.793 80.6415 117.71 80.8711 117.544C81.1031 117.376 81.2191 117.175 81.2191 116.94C81.2191 116.751 81.1528 116.592 81.0202 116.465C80.8877 116.334 80.6841 116.237 80.4094 116.173L79.5004 115.96C79.0008 115.842 78.6339 115.658 78.3995 115.41C78.1675 115.159 78.0515 114.845 78.0515 114.469C78.0515 114.161 78.1379 113.889 78.3107 113.652C78.4859 113.415 78.7238 113.23 79.0245 113.095C79.3275 112.96 79.6708 112.892 80.0543 112.892C80.5941 112.892 81.0179 113.011 81.3256 113.247C81.6358 113.484 81.8559 113.797 81.9862 114.185Z" fill="white"/>
<path d="M31.1716 41.7933V34.5205H35.5608V35.3018H32.0523V37.7592H35.3336V38.5404H32.0523V41.012H35.6177V41.7933H31.1716ZM39.0942 41.9069C38.6397 41.9069 38.2384 41.7921 37.8904 41.5624C37.5424 41.3304 37.2701 41.0037 37.0736 40.5823C36.8771 40.1585 36.7789 39.6578 36.7789 39.0802C36.7789 38.5073 36.8771 38.0101 37.0736 37.5887C37.2701 37.1673 37.5436 36.8418 37.8939 36.6121C38.2443 36.3825 38.6491 36.2677 39.1084 36.2677C39.4635 36.2677 39.7441 36.3269 39.95 36.4452C40.1584 36.5612 40.317 36.6938 40.4259 36.843C40.5372 36.9897 40.6236 37.1105 40.6851 37.2052H40.7562V34.5205H41.5942V41.7933H40.7846V40.9552H40.6851C40.6236 41.0546 40.536 41.1801 40.4223 41.3316C40.3087 41.4808 40.1465 41.6145 39.9358 41.7329C39.7251 41.8489 39.4446 41.9069 39.0942 41.9069ZM39.2079 41.154C39.544 41.154 39.8281 41.0665 40.0601 40.8913C40.2921 40.7137 40.4685 40.4687 40.5893 40.1562C40.71 39.8413 40.7704 39.4779 40.7704 39.066C40.7704 38.6588 40.7112 38.3025 40.5928 37.9971C40.4744 37.6893 40.2992 37.4502 40.0672 37.2798C39.8352 37.1069 39.5488 37.0205 39.2079 37.0205C38.8527 37.0205 38.5568 37.1117 38.3201 37.294C38.0857 37.4739 37.9093 37.7189 37.791 38.029C37.675 38.3368 37.6169 38.6825 37.6169 39.066C37.6169 39.4542 37.6761 39.807 37.7945 40.1242C37.9152 40.4391 38.0928 40.69 38.3272 40.8771C38.5639 41.0617 38.8575 41.154 39.2079 41.154ZM46.683 39.5631V36.3387H47.5211V41.7933H46.683V40.87H46.6262C46.4983 41.1469 46.2995 41.3825 46.0296 41.5766C45.7597 41.7684 45.4188 41.8643 45.0069 41.8643C44.666 41.8643 44.3629 41.7897 44.0978 41.6406C43.8326 41.489 43.6243 41.2618 43.4728 40.9587C43.3213 40.6533 43.2455 40.2686 43.2455 39.8046V36.3387H44.0836V39.7478C44.0836 40.1455 44.1948 40.4628 44.4174 40.6995C44.6423 40.9362 44.9287 41.0546 45.2768 41.0546C45.4851 41.0546 45.697 41.0013 45.9124 40.8948C46.1302 40.7883 46.3125 40.6249 46.4593 40.4048C46.6084 40.1846 46.683 39.904 46.683 39.5631ZM51.272 41.9069C50.7606 41.9069 50.3203 41.7861 49.9509 41.5447C49.5816 41.3032 49.2975 40.9706 49.0987 40.5468C48.8998 40.123 48.8004 39.6389 48.8004 39.0944C48.8004 38.5404 48.9022 38.0515 49.1058 37.6278C49.3117 37.2016 49.5982 36.869 49.9651 36.6299C50.3345 36.3884 50.7653 36.2677 51.2578 36.2677C51.6413 36.2677 51.9869 36.3387 52.2947 36.4808C52.6024 36.6228 52.8546 36.8217 53.0511 37.0773C53.2476 37.333 53.3695 37.6313 53.4168 37.9722H52.5788C52.5149 37.7236 52.3728 37.5035 52.1526 37.3117C51.9348 37.1176 51.6413 37.0205 51.272 37.0205C50.9453 37.0205 50.6588 37.1058 50.4126 37.2762C50.1687 37.4443 49.9782 37.6822 49.8408 37.99C49.7059 38.2954 49.6384 38.654 49.6384 39.066C49.6384 39.4874 49.7047 39.8543 49.8373 40.1668C49.9722 40.4793 50.1616 40.722 50.4055 40.8948C50.6517 41.0676 50.9405 41.154 51.272 41.154C51.4898 41.154 51.6874 41.1162 51.865 41.0404C52.0426 40.9647 52.1929 40.8558 52.316 40.7137C52.4391 40.5717 52.5267 40.4012 52.5788 40.2023H53.4168C53.3695 40.5243 53.2523 40.8143 53.0653 41.0724C52.8806 41.3281 52.6356 41.5317 52.3302 41.6832C52.0272 41.8323 51.6744 41.9069 51.272 41.9069ZM56.2471 41.9211C55.9015 41.9211 55.5878 41.856 55.306 41.7258C55.0243 41.5932 54.8006 41.4026 54.6349 41.154C54.4692 40.9031 54.3863 40.6001 54.3863 40.245C54.3863 39.9325 54.4479 39.6791 54.571 39.485C54.6941 39.2885 54.8586 39.1346 55.0646 39.0234C55.2705 38.9121 55.4978 38.8292 55.7464 38.7748C55.9973 38.718 56.2495 38.673 56.5028 38.6398C56.8342 38.5972 57.1029 38.5653 57.3089 38.544C57.5172 38.5203 57.6687 38.4812 57.7634 38.4268C57.8605 38.3723 57.909 38.2776 57.909 38.1427V38.1143C57.909 37.7639 57.8131 37.4916 57.6214 37.2975C57.432 37.1034 57.1444 37.0063 56.7585 37.0063C56.3584 37.0063 56.0447 37.0939 55.8174 37.2691C55.5901 37.4443 55.4303 37.6313 55.338 37.8302L54.5426 37.5461C54.6846 37.2147 54.874 36.9566 55.1107 36.7719C55.3498 36.5849 55.6103 36.4547 55.892 36.3813C56.1761 36.3056 56.4554 36.2677 56.7301 36.2677C56.9052 36.2677 57.1065 36.289 57.3337 36.3316C57.5634 36.3718 57.7847 36.4559 57.9978 36.5837C58.2132 36.7116 58.392 36.9045 58.534 37.1626C58.6761 37.4206 58.7471 37.7663 58.7471 38.1995V41.7933H57.909V41.0546H57.8664C57.8096 41.173 57.7149 41.2996 57.5823 41.4346C57.4497 41.5695 57.2734 41.6843 57.0532 41.779C56.833 41.8737 56.5643 41.9211 56.2471 41.9211ZM56.3749 41.1683C56.7064 41.1683 56.9857 41.1031 57.213 40.9729C57.4426 40.8427 57.6155 40.6746 57.7315 40.4687C57.8498 40.2627 57.909 40.0461 57.909 39.8188V39.0518C57.8735 39.0944 57.7954 39.1334 57.6747 39.169C57.5563 39.2021 57.419 39.2317 57.2627 39.2577C57.1088 39.2814 56.9585 39.3027 56.8117 39.3217C56.6673 39.3382 56.5501 39.3524 56.4602 39.3643C56.2424 39.3927 56.0388 39.4388 55.8494 39.5028C55.6623 39.5643 55.5108 39.6578 55.3948 39.7833C55.2812 39.9064 55.2244 40.0745 55.2244 40.2876C55.2244 40.5788 55.3321 40.7989 55.5475 40.9481C55.7653 41.0949 56.0411 41.1683 56.3749 41.1683ZM62.4927 41.9069C61.9813 41.9069 61.541 41.7861 61.1716 41.5447C60.8023 41.3032 60.5182 40.9706 60.3194 40.5468C60.1205 40.123 60.0211 39.6389 60.0211 39.0944C60.0211 38.5404 60.1229 38.0515 60.3265 37.6278C60.5324 37.2016 60.8189 36.869 61.1858 36.6299C61.5552 36.3884 61.986 36.2677 62.4785 36.2677C62.862 36.2677 63.2076 36.3387 63.5154 36.4808C63.8232 36.6228 64.0753 36.8217 64.2718 37.0773C64.4683 37.333 64.5902 37.6313 64.6375 37.9722H63.7995C63.7356 37.7236 63.5935 37.5035 63.3733 37.3117C63.1555 37.1176 62.862 37.0205 62.4927 37.0205C62.166 37.0205 61.8795 37.1058 61.6333 37.2762C61.3894 37.4443 61.1989 37.6822 61.0616 37.99C60.9266 38.2954 60.8591 38.654 60.8591 39.066C60.8591 39.4874 60.9254 39.8543 61.058 40.1668C61.1929 40.4793 61.3823 40.722 61.6262 40.8948C61.8724 41.0676 62.1612 41.154 62.4927 41.154C62.7105 41.154 62.9081 41.1162 63.0857 41.0404C63.2633 40.9647 63.4136 40.8558 63.5367 40.7137C63.6598 40.5717 63.7474 40.4012 63.7995 40.2023H64.6375C64.5902 40.5243 64.473 40.8143 64.286 41.0724C64.1013 41.3281 63.8563 41.5317 63.5509 41.6832C63.2479 41.8323 62.8951 41.9069 62.4927 41.9069ZM62.0949 41.7648H62.791L62.7341 42.0489C62.9188 42.0773 63.0881 42.1543 63.2419 42.2798C63.3958 42.4076 63.4728 42.61 63.4728 42.887C63.4728 43.1924 63.3461 43.441 63.0928 43.6327C62.8419 43.8269 62.4714 43.9239 61.9813 43.9239L61.9529 43.37C62.1731 43.37 62.3553 43.3344 62.4998 43.2634C62.6465 43.1948 62.7199 43.0788 62.7199 42.9154C62.7199 42.7521 62.6596 42.6408 62.5388 42.5816C62.4181 42.5224 62.2228 42.4822 61.9529 42.4609L62.0949 41.7648ZM67.4678 41.9211C67.1222 41.9211 66.8085 41.856 66.5268 41.7258C66.245 41.5932 66.0213 41.4026 65.8556 41.154C65.6899 40.9031 65.607 40.6001 65.607 40.245C65.607 39.9325 65.6686 39.6791 65.7917 39.485C65.9148 39.2885 66.0793 39.1346 66.2853 39.0234C66.4912 38.9121 66.7185 38.8292 66.9671 38.7748C67.218 38.718 67.4702 38.673 67.7235 38.6398C68.0549 38.5972 68.3236 38.5653 68.5296 38.544C68.7379 38.5203 68.8894 38.4812 68.9841 38.4268C69.0812 38.3723 69.1297 38.2776 69.1297 38.1427V38.1143C69.1297 37.7639 69.0339 37.4916 68.8421 37.2975C68.6527 37.1034 68.3651 37.0063 67.9792 37.0063C67.5791 37.0063 67.2654 37.0939 67.0381 37.2691C66.8108 37.4443 66.651 37.6313 66.5587 37.8302L65.7633 37.5461C65.9053 37.2147 66.0947 36.9566 66.3314 36.7719C66.5705 36.5849 66.831 36.4547 67.1127 36.3813C67.3968 36.3056 67.6761 36.2677 67.9508 36.2677C68.1259 36.2677 68.3272 36.289 68.5544 36.3316C68.7841 36.3718 69.0054 36.4559 69.2185 36.5837C69.4339 36.7116 69.6127 36.9045 69.7547 37.1626C69.8968 37.4206 69.9678 37.7663 69.9678 38.1995V41.7933H69.1297V41.0546H69.0871C69.0303 41.173 68.9356 41.2996 68.803 41.4346C68.6705 41.5695 68.4941 41.6843 68.2739 41.779C68.0537 41.8737 67.785 41.9211 67.4678 41.9211ZM67.5956 41.1683C67.9271 41.1683 68.2064 41.1031 68.4337 40.9729C68.6634 40.8427 68.8362 40.6746 68.9522 40.4687C69.0705 40.2627 69.1297 40.0461 69.1297 39.8188V39.0518C69.0942 39.0944 69.0161 39.1334 68.8954 39.169C68.777 39.2021 68.6397 39.2317 68.4834 39.2577C68.3295 39.2814 68.1792 39.3027 68.0324 39.3217C67.888 39.3382 67.7708 39.3524 67.6809 39.3643C67.4631 39.3927 67.2595 39.4388 67.0701 39.5028C66.883 39.5643 66.7315 39.6578 66.6155 39.7833C66.5019 39.9064 66.4451 40.0745 66.4451 40.2876C66.4451 40.5788 66.5528 40.7989 66.7682 40.9481C66.986 41.0949 67.2618 41.1683 67.5956 41.1683ZM66.9138 35.6853L66.2604 35.6569C66.2604 35.2947 66.3634 34.9987 66.5694 34.7691C66.7777 34.5371 67.0346 34.4211 67.34 34.4211C67.4749 34.4211 67.5945 34.4448 67.6986 34.4921C67.8028 34.5371 67.9022 34.5892 67.9969 34.6484C68.0916 34.7076 68.1887 34.7608 68.2881 34.8082C68.3899 34.8531 68.5047 34.8756 68.6326 34.8756C68.7675 34.8756 68.8812 34.8236 68.9735 34.7194C69.0682 34.6129 69.1155 34.485 69.1155 34.3359L69.7547 34.3927C69.7547 34.762 69.6506 35.0556 69.4422 35.2734C69.2363 35.4912 68.9806 35.6001 68.6752 35.6001C68.5118 35.6001 68.3769 35.5776 68.2704 35.5326C68.1638 35.4852 68.0691 35.432 67.9863 35.3728C67.9034 35.3136 67.8158 35.2615 67.7235 35.2165C67.6312 35.1692 67.5175 35.1455 67.3826 35.1455C67.2476 35.1455 67.1352 35.1988 67.0452 35.3053C66.9576 35.4095 66.9138 35.5361 66.9138 35.6853ZM73.7134 41.9069C73.2209 41.9069 72.7889 41.7897 72.4172 41.5553C72.0479 41.3209 71.7591 40.9931 71.5507 40.5717C71.3448 40.1503 71.2418 39.6578 71.2418 39.0944C71.2418 38.5262 71.3448 38.0302 71.5507 37.6065C71.7591 37.1827 72.0479 36.8536 72.4172 36.6192C72.7889 36.3849 73.2209 36.2677 73.7134 36.2677C74.2058 36.2677 74.6367 36.3849 75.006 36.6192C75.3777 36.8536 75.6665 37.1827 75.8725 37.6065C76.0808 38.0302 76.185 38.5262 76.185 39.0944C76.185 39.6578 76.0808 40.1503 75.8725 40.5717C75.6665 40.9931 75.3777 41.3209 75.006 41.5553C74.6367 41.7897 74.2058 41.9069 73.7134 41.9069ZM73.7134 41.154C74.0874 41.154 74.3952 41.0582 74.6367 40.8664C74.8781 40.6746 75.0569 40.4225 75.1729 40.11C75.2889 39.7975 75.3469 39.459 75.3469 39.0944C75.3469 38.7298 75.2889 38.3901 75.1729 38.0752C75.0569 37.7603 74.8781 37.5058 74.6367 37.3117C74.3952 37.1176 74.0874 37.0205 73.7134 37.0205C73.3393 37.0205 73.0315 37.1176 72.7901 37.3117C72.5486 37.5058 72.3698 37.7603 72.2538 38.0752C72.1378 38.3901 72.0798 38.7298 72.0798 39.0944C72.0798 39.459 72.1378 39.7975 72.2538 40.11C72.3698 40.4225 72.5486 40.6746 72.7901 40.8664C73.0315 41.0582 73.3393 41.154 73.7134 41.154Z" fill="white"/>
<path d="M264.579 79.1988C264.579 112.852 238.056 139.692 205.876 139.692C173.696 139.692 147.173 112.852 147.173 79.1988C147.173 45.5454 173.696 18.7057 205.876 18.7057C238.056 18.7057 264.579 45.5454 264.579 79.1988Z" stroke="#442C61" stroke-width="20"/>
<mask id="path-8-inside-1_12_406" fill="white">
<path d="M205.876 0.586063C217.546 0.586064 229.062 3.32143 239.545 8.58342C250.028 13.8454 259.201 21.495 266.364 30.9483C273.526 40.4017 278.49 51.4091 280.875 63.1304C283.261 74.8517 283.005 86.9773 280.127 98.5818L252.739 91.4322C254.555 84.1081 254.717 76.4552 253.211 69.0573C251.706 61.6595 248.573 54.7123 244.052 48.7459C239.531 42.7795 233.742 37.9515 227.126 34.6305C220.51 31.3094 213.242 29.583 205.876 29.583V0.586063Z"/>
</mask>
<path d="M205.876 0.586063C217.546 0.586064 229.062 3.32143 239.545 8.58342C250.028 13.8454 259.201 21.495 266.364 30.9483C273.526 40.4017 278.49 51.4091 280.875 63.1304C283.261 74.8517 283.005 86.9773 280.127 98.5818L252.739 91.4322C254.555 84.1081 254.717 76.4552 253.211 69.0573C251.706 61.6595 248.573 54.7123 244.052 48.7459C239.531 42.7795 233.742 37.9515 227.126 34.6305C220.51 31.3094 213.242 29.583 205.876 29.583V0.586063Z" stroke="#D0B7B0" stroke-width="70" mask="url(#path-8-inside-1_12_406)"/>
<mask id="path-9-inside-2_12_406" fill="white">
<path d="M280.122 98.6038C276.744 112.209 269.877 124.639 260.233 134.6C250.59 144.561 238.523 151.69 225.286 155.247C212.048 158.804 198.124 158.658 184.96 154.825C171.797 150.993 159.873 143.612 150.43 133.452L170.882 113.44C176.842 119.853 184.367 124.511 192.675 126.93C200.984 129.349 209.772 129.441 218.126 127.196C226.481 124.951 234.097 120.452 240.183 114.165C246.27 107.878 250.604 100.033 252.736 91.4461L280.122 98.6038Z"/>
</mask>
<path d="M280.122 98.6038C276.744 112.209 269.877 124.639 260.233 134.6C250.59 144.561 238.523 151.69 225.286 155.247C212.048 158.804 198.124 158.658 184.96 154.825C171.797 150.993 159.873 143.612 150.43 133.452L170.882 113.44C176.842 119.853 184.367 124.511 192.675 126.93C200.984 129.349 209.772 129.441 218.126 127.196C226.481 124.951 234.097 120.452 240.183 114.165C246.27 107.878 250.604 100.033 252.736 91.4461L280.122 98.6038Z" stroke="#9C645C" stroke-width="70" mask="url(#path-9-inside-2_12_406)"/>
</svg>
