<svg width="295" height="258" viewBox="0 0 295 258" fill="none" xmlns="http://www.w3.org/2000/svg">
<g clip-path="url(#clip0_44_158)">
<path d="M293.471 138.496H227.723C227.318 138.496 226.929 138.27 226.643 137.867C226.356 137.465 226.195 136.92 226.194 136.351V79.2826C226.195 78.7138 226.356 78.1685 226.643 77.7663C226.929 77.3641 227.318 77.1378 227.723 77.1372H293.471C293.876 77.1378 294.265 77.3641 294.552 77.7663C294.838 78.1685 295 78.7138 295 79.2826V136.351C295 136.92 294.838 137.465 294.552 137.867C294.265 138.27 293.876 138.496 293.471 138.496Z" fill="white"/>
<path d="M293.471 138.496H227.723C227.318 138.496 226.929 138.27 226.643 137.867C226.356 137.465 226.195 136.92 226.194 136.351V79.2826C226.195 78.7138 226.356 78.1685 226.643 77.7663C226.929 77.3641 227.318 77.1378 227.723 77.1372H293.471C293.876 77.1378 294.265 77.3641 294.552 77.7663C294.838 78.1685 295 78.7138 295 79.2826V136.351C295 136.92 294.838 137.465 294.552 137.867C294.265 138.27 293.876 138.496 293.471 138.496ZM227.723 77.9954C227.48 77.9957 227.247 78.1315 227.075 78.3728C226.903 78.6141 226.806 78.9413 226.806 79.2826V136.351C226.806 136.692 226.903 137.019 227.075 137.261C227.247 137.502 227.48 137.638 227.723 137.638H293.471C293.714 137.638 293.947 137.502 294.119 137.261C294.291 137.019 294.388 136.692 294.388 136.351V79.2826C294.388 78.9413 294.291 78.6141 294.119 78.3728C293.947 78.1315 293.714 77.9957 293.471 77.9954H227.723Z" fill="#3F3D56"/>
<path d="M280.474 96.1964H240.72C240.355 96.1964 240.005 95.993 239.747 95.6309C239.489 95.2687 239.344 94.7776 239.344 94.2655C239.344 93.7534 239.489 93.2623 239.747 92.9002C240.005 92.538 240.355 92.3346 240.72 92.3346H280.474C280.839 92.3346 281.189 92.538 281.447 92.9002C281.705 93.2623 281.85 93.7534 281.85 94.2655C281.85 94.7776 281.705 95.2687 281.447 95.6309C281.189 95.993 280.839 96.1964 280.474 96.1964Z" fill="#CCCCCC"/>
<path d="M280.474 109.498H240.72C240.355 109.498 240.005 109.295 239.747 108.933C239.489 108.57 239.344 108.079 239.344 107.567C239.344 107.055 239.489 106.564 239.747 106.202C240.005 105.84 240.355 105.636 240.72 105.636H280.474C280.839 105.636 281.189 105.84 281.447 106.202C281.705 106.564 281.85 107.055 281.85 107.567C281.85 108.079 281.705 108.57 281.447 108.933C281.189 109.295 280.839 109.498 280.474 109.498Z" fill="#CCCCCC"/>
<path d="M276.933 130.588C279.649 130.588 281.85 127.499 281.85 123.688C281.85 119.877 279.649 116.787 276.933 116.787C274.217 116.787 272.015 119.877 272.015 123.688C272.015 127.499 274.217 130.588 276.933 130.588Z" fill="#BC8AE1"/>
<path d="M277.068 120.437V119.78H277.206V120.437C277.403 120.449 277.595 120.515 277.774 120.632C277.903 120.717 278.014 120.847 278.097 121.01C278.174 121.161 278.215 121.342 278.214 121.527C278.217 121.662 278.185 121.794 278.123 121.899C278.097 121.946 278.063 121.985 278.024 122.011C277.985 122.037 277.943 122.051 277.9 122.05C277.868 122.051 277.836 122.043 277.806 122.026C277.777 122.009 277.75 121.983 277.727 121.951C277.704 121.919 277.686 121.88 277.674 121.838C277.661 121.795 277.656 121.75 277.656 121.704C277.657 121.64 277.666 121.577 277.684 121.518L277.74 121.354C277.759 121.285 277.769 121.212 277.767 121.138C277.769 121.023 277.743 120.911 277.693 120.82C277.639 120.724 277.566 120.653 277.484 120.614C277.394 120.573 277.301 120.547 277.206 120.536V122.902L277.237 122.928C277.527 123.143 277.79 123.422 278.017 123.754C278.118 123.921 278.197 124.111 278.253 124.315C278.308 124.512 278.337 124.723 278.338 124.935C278.34 125.21 278.289 125.481 278.19 125.718C278.093 125.949 277.95 126.137 277.78 126.259C277.6 126.382 277.406 126.462 277.206 126.492V127.197H277.068V126.505C276.867 126.503 276.668 126.446 276.482 126.336C276.297 126.24 276.134 126.076 276.009 125.861C275.899 125.668 275.84 125.428 275.841 125.182C275.837 125.008 275.875 124.838 275.949 124.699C275.978 124.639 276.017 124.59 276.063 124.556C276.108 124.522 276.159 124.503 276.211 124.503C276.242 124.501 276.273 124.509 276.302 124.524C276.33 124.54 276.357 124.564 276.379 124.595C276.401 124.626 276.418 124.663 276.429 124.703C276.441 124.744 276.446 124.787 276.445 124.831C276.435 124.964 276.395 125.089 276.331 125.189C276.298 125.251 276.269 125.317 276.246 125.387C276.23 125.442 276.223 125.501 276.223 125.56C276.224 125.718 276.262 125.87 276.333 125.994C276.409 126.131 276.511 126.238 276.627 126.302C276.759 126.375 276.901 126.41 277.043 126.406H277.068V123.581L276.892 123.439C276.726 123.303 276.599 123.191 276.511 123.101C276.426 123.014 276.347 122.916 276.275 122.807C276.098 122.542 276 122.193 276.001 121.83C276 121.604 276.041 121.381 276.118 121.183C276.194 120.986 276.306 120.819 276.442 120.701C276.631 120.54 276.847 120.45 277.068 120.437ZM277.068 120.532C276.948 120.537 276.831 120.574 276.721 120.64C276.611 120.716 276.521 120.839 276.463 120.99C276.397 121.154 276.363 121.34 276.365 121.529C276.364 121.76 276.414 121.985 276.509 122.172C276.559 122.275 276.62 122.366 276.689 122.445C276.8 122.561 276.916 122.668 277.037 122.764L277.068 122.79V120.532ZM277.206 126.397C277.286 126.388 277.364 126.364 277.44 126.328C277.501 126.295 277.558 126.248 277.608 126.189C277.704 126.076 277.777 125.931 277.823 125.768C277.877 125.588 277.904 125.394 277.903 125.199C277.891 124.886 277.82 124.582 277.698 124.32C277.575 124.057 277.406 123.844 277.206 123.702V126.397Z" fill="white"/>
<path d="M248.683 100.297H182.936C182.53 100.297 182.142 100.071 181.855 99.6684C181.568 99.2662 181.407 98.7209 181.407 98.1521V41.0837C181.407 40.5149 181.568 39.9696 181.855 39.5674C182.142 39.1652 182.53 38.9389 182.936 38.9382H248.683C249.089 38.9389 249.477 39.1652 249.764 39.5674C250.051 39.9696 250.212 40.5149 250.212 41.0837V98.1521C250.212 98.7209 250.051 99.2662 249.764 99.6684C249.477 100.071 249.089 100.297 248.683 100.297Z" fill="white"/>
<path d="M248.683 100.297H182.936C182.53 100.297 182.142 100.071 181.855 99.6684C181.568 99.2662 181.407 98.7209 181.407 98.1521V41.0837C181.407 40.5149 181.568 39.9696 181.855 39.5674C182.142 39.1652 182.53 38.9389 182.936 38.9382H248.683C249.089 38.9389 249.477 39.1652 249.764 39.5674C250.051 39.9696 250.212 40.5149 250.212 41.0837V98.1521C250.212 98.7209 250.051 99.2662 249.764 99.6684C249.477 100.071 249.089 100.297 248.683 100.297ZM182.936 39.7964C182.692 39.7968 182.459 39.9325 182.287 40.1739C182.115 40.4152 182.018 40.7424 182.018 41.0837V98.1521C182.018 98.4934 182.115 98.8206 182.287 99.0619C182.459 99.3032 182.692 99.4389 182.936 99.4393H248.683C248.927 99.4389 249.16 99.3032 249.332 99.0619C249.504 98.8206 249.601 98.4934 249.601 98.1521V41.0837C249.601 40.7424 249.504 40.4152 249.332 40.1739C249.16 39.9325 248.927 39.7968 248.683 39.7964H182.936Z" fill="#3F3D56"/>
<path d="M235.687 57.9975H195.932C195.567 57.9975 195.217 57.7941 194.959 57.4319C194.701 57.0698 194.556 56.5787 194.556 56.0666C194.556 55.5545 194.701 55.0634 194.959 54.7012C195.217 54.3391 195.567 54.1357 195.932 54.1357H235.687C236.052 54.1357 236.402 54.3391 236.66 54.7012C236.918 55.0634 237.063 55.5545 237.063 56.0666C237.063 56.5787 236.918 57.0698 236.66 57.4319C236.402 57.7941 236.052 57.9975 235.687 57.9975Z" fill="#CCCCCC"/>
<path d="M235.687 71.2991H195.932C195.567 71.2991 195.217 71.0957 194.959 70.7336C194.701 70.3715 194.556 69.8804 194.556 69.3682C194.556 68.8561 194.701 68.365 194.959 68.0029C195.217 67.6408 195.567 67.4373 195.932 67.4373H235.687C236.052 67.4373 236.402 67.6408 236.66 68.0029C236.918 68.365 237.063 68.8561 237.063 69.3682C237.063 69.8804 236.918 70.3715 236.66 70.7336C236.402 71.0957 236.052 71.2991 235.687 71.2991Z" fill="#CCCCCC"/>
<path d="M232.145 92.3892C234.861 92.3892 237.063 89.2998 237.063 85.4887C237.063 81.6777 234.861 78.5883 232.145 78.5883C229.429 78.5883 227.227 81.6777 227.227 85.4887C227.227 89.2998 229.429 92.3892 232.145 92.3892Z" fill="#BC8AE1"/>
<path d="M232.28 82.238V81.5806H232.419V82.238C232.615 82.25 232.808 82.3161 232.986 82.4327C233.115 82.5178 233.227 82.6482 233.31 82.8112C233.386 82.962 233.427 83.1428 233.427 83.328C233.43 83.4634 233.397 83.5956 233.336 83.7C233.309 83.7475 233.275 83.7858 233.237 83.8121C233.198 83.8383 233.155 83.8518 233.112 83.8513C233.08 83.8522 233.048 83.8438 233.019 83.8267C232.989 83.8096 232.962 83.7841 232.94 83.7519C232.917 83.7198 232.898 83.6813 232.886 83.6389C232.874 83.5965 232.868 83.551 232.869 83.5053C232.869 83.4413 232.878 83.378 232.897 83.3193L232.952 83.155C232.972 83.0863 232.981 83.0127 232.98 82.9387C232.981 82.8241 232.955 82.7121 232.906 82.6209C232.852 82.5252 232.779 82.4538 232.696 82.4154C232.606 82.374 232.513 82.3478 232.419 82.3375V84.7033L232.45 84.7293C232.739 84.9445 233.003 85.2234 233.23 85.5554C233.33 85.7222 233.41 85.9116 233.465 86.1156C233.521 86.3133 233.549 86.5237 233.55 86.7362C233.553 87.0112 233.501 87.2819 233.402 87.519C233.305 87.7505 233.163 87.9381 232.992 88.0597C232.812 88.1835 232.618 88.2626 232.419 88.2933V88.9983H232.28V88.3062C232.079 88.304 231.88 88.2467 231.694 88.1376C231.509 88.041 231.346 87.8767 231.221 87.6618C231.111 87.4691 231.052 87.2294 231.053 86.9827C231.049 86.8095 231.087 86.6395 231.161 86.5004C231.19 86.4404 231.229 86.3912 231.275 86.357C231.321 86.3227 231.371 86.3044 231.423 86.3037C231.454 86.3022 231.485 86.3096 231.514 86.3255C231.543 86.3415 231.569 86.3656 231.591 86.3963C231.613 86.4271 231.63 86.4638 231.642 86.5043C231.653 86.5448 231.658 86.5882 231.657 86.6317C231.647 86.7648 231.607 86.8901 231.543 86.9899C231.51 87.0516 231.482 87.1182 231.459 87.1884C231.443 87.2432 231.435 87.3019 231.435 87.361C231.436 87.5187 231.475 87.6715 231.545 87.7946C231.622 87.9325 231.723 88.039 231.839 88.1031C231.972 88.1756 232.113 88.2109 232.255 88.2068H232.28V85.3824L232.104 85.2397C231.938 85.1042 231.811 84.9918 231.724 84.9023C231.638 84.8155 231.559 84.717 231.488 84.6082C231.311 84.3435 231.213 83.9938 231.214 83.6307C231.213 83.4047 231.253 83.1822 231.331 82.9842C231.407 82.7866 231.518 82.6203 231.654 82.5018C231.844 82.3416 232.059 82.2508 232.28 82.238ZM232.28 82.3332C232.161 82.3384 232.043 82.375 231.933 82.4412C231.824 82.5174 231.733 82.6396 231.675 82.7908C231.609 82.9553 231.575 83.1415 231.577 83.3303C231.576 83.5607 231.626 83.7857 231.721 83.9735C231.772 84.0758 231.832 84.1674 231.901 84.2456C232.012 84.3621 232.129 84.4688 232.249 84.565L232.28 84.591V82.3332ZM232.419 88.1981C232.498 88.1888 232.577 88.1656 232.652 88.1289C232.713 88.0957 232.77 88.049 232.821 87.9905C232.916 87.8768 232.99 87.732 233.036 87.5689C233.089 87.3887 233.116 87.1953 233.115 87C233.103 86.6867 233.032 86.3835 232.91 86.1207C232.788 85.858 232.618 85.6452 232.419 85.5035V88.1981Z" fill="white"/>
<path d="M112.389 91.7821C111.816 91.724 111.241 91.8429 110.705 92.1303C110.168 92.4176 109.683 92.8666 109.284 93.4455C108.884 94.0244 108.58 94.7192 108.393 95.4809C108.205 96.2426 108.139 97.0526 108.199 97.8541L95.5591 106.169L101.746 111.484L112.8 102.773C113.753 102.543 114.613 101.83 115.216 100.77C115.819 99.7101 116.125 98.3763 116.074 97.0214C116.023 95.6666 115.62 94.385 114.941 93.4193C114.262 92.4537 113.354 91.8711 112.389 91.7821Z" fill="#FFB6B6"/>
<path d="M60.0853 251.753L64.4506 251.753L66.5273 228.127L60.0846 228.128L60.0853 251.753Z" fill="#FFB6B6"/>
<path d="M58.9719 249.753L67.5686 249.753H67.569C69.0219 249.753 70.4153 250.563 71.4427 252.004C72.4701 253.446 73.0474 255.401 73.0475 257.44V257.69L58.9722 257.69L58.9719 249.753Z" fill="#2F2E41"/>
<path d="M82.3597 251.753L86.725 251.753L88.8018 228.127L82.359 228.128L82.3597 251.753Z" fill="#FFB6B6"/>
<path d="M81.2463 249.753L89.843 249.753H89.8434C91.2963 249.753 92.6898 250.563 93.7172 252.004C94.7446 253.446 95.3218 255.401 95.3219 257.44V257.69L81.2466 257.69L81.2463 249.753Z" fill="#2F2E41"/>
<path d="M85.2756 129.215L87.4911 135.908L91.4854 195.764L88.3805 247.211H81.1186L72.5496 166.118L68.5247 245.343L58.7262 244.788L56.8451 137.377L85.2756 129.215Z" fill="#543B6C"/>
<path d="M49.9684 73.9799L59.1541 68.7361L72.1193 69.7564L83.6456 75.6503L87.4912 135.908C77.4636 143.592 67.306 145.689 56.9717 140.195L47.3805 100.947L49.9684 73.9799Z" fill="#E4E4E4"/>
<path d="M80.0595 77.2433L84.1358 75.6503C84.1358 75.6503 87.2189 72.8374 88.2333 81.199C89.2477 89.5606 94.4673 102.567 94.4673 102.567L103.403 95.8849L107.54 108.561L93.4286 120.555L78.5685 99.5461L80.0595 77.2433Z" fill="#E4E4E4"/>
<path d="M57.7004 57.572C57.2054 55.9959 56.9364 54.2985 56.909 52.5766C56.8815 50.8547 57.096 49.142 57.5402 47.5365C57.9844 45.9309 58.6497 44.4638 59.498 43.2189C60.3463 41.9741 61.361 40.9759 62.4843 40.2813C63.6075 39.5867 64.8173 39.2094 66.0444 39.1708C67.2716 39.1323 68.4922 39.4332 69.6365 40.0565C70.7807 40.6798 71.8263 41.6133 72.7135 42.8036C73.6007 43.9939 74.3121 45.4177 74.8071 46.9938L74.8605 47.1673C75.8441 50.3609 75.8832 53.9719 74.9692 57.206C74.5167 58.8073 73.8438 60.2679 72.9889 61.5044C72.1341 62.7408 71.1141 63.7289 69.9871 64.4123C67.711 65.7923 65.1375 65.8471 62.8326 64.5647C60.5278 63.2823 58.6804 60.7677 57.6968 57.5741L57.7004 57.572Z" fill="#FFB6B6"/>
<path d="M70.3903 45.5685C72.3339 46.0633 75.3416 47.7802 77.0109 45.766C76.1865 44.4144 75.1495 43.3501 73.9818 42.6572C73.7518 42.5501 73.5389 42.3812 73.3548 42.16C72.7857 41.353 73.2254 39.9625 72.965 38.8714C72.8386 38.4727 72.6478 38.1207 72.4079 37.843C72.1679 37.5654 71.8853 37.3697 71.5822 37.2715C71.0029 37.0283 70.3957 36.9888 69.8266 36.6939C68.4798 35.9836 67.5223 33.951 66.1417 33.3987C64.9389 32.9105 63.7286 33.6692 62.6905 34.5547C61.6524 35.4401 60.6254 36.4906 59.411 36.6587C58.5035 36.7748 57.9289 38.8694 57.0178 38.9308C55.1086 39.0611 55.2146 37.2954 55.0734 40.1098C54.9919 41.7892 53.2817 45.1302 53.3095 46.8243C53.3378 47.9343 53.1978 49.0337 53.2204 50.1472C53.2717 52.2678 53.8779 54.2876 54.9232 55.821C55.7924 57.0753 56.923 57.9212 57.6547 59.3509C58.0352 60.1098 58.2991 60.9957 58.7421 61.6825C59.185 62.3692 59.9352 62.7825 60.4296 62.2922C60.924 61.8019 60.9332 60.7409 61.1785 59.9335C61.3289 59.4385 61.5859 59.0219 61.9135 58.7421C62.2412 58.4622 62.6229 58.3332 63.0054 58.373C63.4026 58.4459 63.7775 58.6728 64.0879 59.0283C64.3982 59.3838 64.6317 59.8537 64.7621 60.3852C64.5306 58.6009 63.9203 56.9291 63.6884 55.1434C63.4564 53.3578 63.7587 51.2247 64.8545 50.5275C65.325 50.2203 65.9606 50.1377 66.1497 49.4299C66.2655 49.0035 66.1596 48.4997 66.2042 48.0385C66.445 45.7786 69.123 45.2195 70.3903 45.5685Z" fill="#2F2E41"/>
<path d="M58.073 139.498C57.9892 138.701 57.7819 137.939 57.4656 137.267C57.1494 136.594 56.7318 136.027 56.2425 135.605C55.7531 135.183 55.2038 134.917 54.6332 134.826C54.0627 134.734 53.4847 134.819 52.9401 135.075L44.4151 119.564L42.0583 129.191L50.5151 142.444C50.8819 143.7 51.5641 144.722 52.4325 145.319C53.3009 145.916 54.2951 146.045 55.2267 145.682C56.1583 145.318 56.9626 144.488 57.4872 143.349C58.0118 142.209 58.2202 140.839 58.073 139.498V139.498Z" fill="#FFB6B6"/>
<path d="M52.913 76.9055L49.9685 73.9799C49.9685 73.9799 43.2321 73.4384 42.2522 81.199L29.9001 109.71L45.2151 139.356L52.6402 128.389L43.2713 113.027L51.1375 92.7615L52.913 76.9055Z" fill="#E4E4E4"/>
<path d="M124.652 81.4232H124.497V75.4854C124.497 75.0341 124.434 74.5872 124.311 74.1702C124.188 73.7532 124.007 73.3744 123.78 73.0553C123.552 72.7361 123.282 72.483 122.985 72.3103C122.688 72.1376 122.369 72.0487 122.048 72.0487H113.082C112.76 72.0487 112.442 72.1376 112.145 72.3103C111.848 72.483 111.578 72.7361 111.35 73.0553C111.123 73.3744 110.942 73.7532 110.819 74.1702C110.696 74.5872 110.633 75.034 110.633 75.4853V108.061C110.633 108.512 110.696 108.959 110.819 109.376C110.942 109.793 111.123 110.172 111.35 110.491C111.578 110.81 111.848 111.063 112.145 111.236C112.442 111.409 112.76 111.498 113.082 111.498H122.048C122.369 111.498 122.688 111.409 122.985 111.236C123.282 111.063 123.552 110.81 123.78 110.491C124.007 110.172 124.188 109.793 124.311 109.376C124.434 108.959 124.497 108.512 124.497 108.061V85.6499H124.652V81.4232Z" fill="#3F3D56"/>
<path d="M122.147 72.9428H120.976C121.03 73.1279 121.051 73.3288 121.036 73.5277C121.022 73.7266 120.972 73.9175 120.893 74.0834C120.814 74.2494 120.706 74.3854 120.58 74.4794C120.455 74.5734 120.314 74.6226 120.172 74.6226H115.035C114.893 74.6226 114.753 74.5734 114.627 74.4794C114.501 74.3854 114.394 74.2494 114.314 74.0834C114.235 73.9174 114.186 73.7266 114.171 73.5277C114.157 73.3288 114.177 73.1279 114.231 72.9428H113.138C112.653 72.9428 112.187 73.2132 111.844 73.6945C111.501 74.1758 111.309 74.8286 111.309 75.5093V108.037C111.309 108.718 111.501 109.371 111.844 109.852C112.187 110.333 112.653 110.604 113.138 110.604H122.147C122.632 110.604 123.097 110.333 123.44 109.852C123.783 109.371 123.976 108.718 123.976 108.037V75.5092C123.976 74.8286 123.783 74.1758 123.44 73.6945C123.097 73.2132 122.632 72.9428 122.147 72.9428Z" fill="#BC8AE1"/>
<path d="M203.018 61.3592H137.27C136.864 61.3586 136.476 61.1323 136.189 60.7301C135.903 60.3279 135.741 59.7826 135.741 59.2138V2.14543C135.741 1.57663 135.903 1.03131 136.189 0.6291C136.476 0.226895 136.864 0.000650957 137.27 0H203.018C203.423 0.000650959 203.812 0.226895 204.098 0.6291C204.385 1.03131 204.546 1.57663 204.547 2.14543V59.2138C204.546 59.7826 204.385 60.3279 204.098 60.7301C203.812 61.1323 203.423 61.3586 203.018 61.3592Z" fill="white"/>
<path d="M203.018 61.3592H137.27C136.864 61.3586 136.476 61.1323 136.189 60.7301C135.903 60.3279 135.741 59.7826 135.741 59.2138V2.14543C135.741 1.57663 135.903 1.03131 136.189 0.6291C136.476 0.226895 136.864 0.000650957 137.27 0H203.018C203.423 0.000650959 203.812 0.226895 204.098 0.6291C204.385 1.03131 204.546 1.57663 204.547 2.14543V59.2138C204.546 59.7826 204.385 60.3279 204.098 60.7301C203.812 61.1323 203.423 61.3586 203.018 61.3592ZM137.27 0.858172C137.027 0.858545 136.793 0.994288 136.621 1.23562C136.449 1.47694 136.353 1.80415 136.352 2.14543V59.2138C136.353 59.5551 136.449 59.8823 136.621 60.1236C136.793 60.365 137.027 60.5007 137.27 60.5011H203.018C203.261 60.5007 203.494 60.365 203.666 60.1236C203.838 59.8823 203.935 59.5551 203.935 59.2138V2.14543C203.935 1.80415 203.838 1.47694 203.666 1.23562C203.494 0.994288 203.261 0.858545 203.018 0.858172H137.27Z" fill="#3F3D56"/>
<path d="M190.021 19.0592H150.266C149.902 19.0592 149.552 18.8558 149.293 18.4937C149.035 18.1316 148.89 17.6404 148.89 17.1283C148.89 16.6162 149.035 16.1251 149.293 15.763C149.552 15.4009 149.902 15.1974 150.266 15.1974H190.021C190.386 15.1974 190.736 15.4009 190.994 15.763C191.252 16.1251 191.397 16.6162 191.397 17.1283C191.397 17.6404 191.252 18.1316 190.994 18.4937C190.736 18.8558 190.386 19.0592 190.021 19.0592Z" fill="#CCCCCC"/>
<path d="M190.021 32.3609H150.266C149.902 32.3609 149.552 32.1575 149.293 31.7953C149.035 31.4332 148.89 30.9421 148.89 30.43C148.89 29.9179 149.035 29.4268 149.293 29.0646C149.552 28.7025 149.902 28.4991 150.266 28.4991H190.021C190.386 28.4991 190.736 28.7025 190.994 29.0646C191.252 29.4268 191.397 29.9179 191.397 30.43C191.397 30.9421 191.252 31.4332 190.994 31.7953C190.736 32.1575 190.386 32.3609 190.021 32.3609Z" fill="#CCCCCC"/>
<path d="M186.479 53.4509C189.195 53.4509 191.397 50.3615 191.397 46.5505C191.397 42.7395 189.195 39.65 186.479 39.65C183.763 39.65 181.561 42.7395 181.561 46.5505C181.561 50.3615 183.763 53.4509 186.479 53.4509Z" fill="#BC8AE1"/>
<path d="M186.614 43.2998V42.6423H186.753V43.2998C186.949 43.3117 187.142 43.3779 187.32 43.4944C187.449 43.5796 187.561 43.7099 187.644 43.8729C187.72 44.0237 187.761 44.2045 187.761 44.3897C187.764 44.5251 187.732 44.6573 187.67 44.7617C187.644 44.8092 187.61 44.8476 187.571 44.8738C187.532 44.9001 187.49 44.9135 187.447 44.9131C187.414 44.9139 187.383 44.9056 187.353 44.8884C187.323 44.8713 187.296 44.8459 187.274 44.8136C187.251 44.7815 187.232 44.743 187.22 44.7006C187.208 44.6582 187.202 44.6128 187.203 44.5671C187.203 44.5031 187.213 44.4398 187.231 44.3811L187.286 44.2167C187.306 44.148 187.315 44.0744 187.314 44.0005C187.316 43.8859 187.29 43.7739 187.24 43.6826C187.186 43.5869 187.113 43.5155 187.03 43.4771C186.941 43.4357 186.847 43.4096 186.753 43.3992V45.7651L186.784 45.791C187.074 46.0062 187.337 46.2851 187.564 46.6172C187.664 46.784 187.744 46.9733 187.8 47.1773C187.855 47.3751 187.884 47.5855 187.884 47.7979C187.887 48.0729 187.836 48.3437 187.736 48.5808C187.639 48.8123 187.497 48.9999 187.326 49.1214C187.146 49.2453 186.952 49.3243 186.753 49.355V50.06H186.614V49.368C186.413 49.3657 186.214 49.3084 186.029 49.1993C185.844 49.1027 185.68 48.9384 185.555 48.7235C185.446 48.5308 185.386 48.2912 185.387 48.0445C185.384 47.8712 185.422 47.7012 185.495 47.5622C185.525 47.5022 185.564 47.453 185.609 47.4187C185.655 47.3845 185.706 47.3662 185.757 47.3654C185.788 47.3639 185.819 47.3713 185.848 47.3873C185.877 47.4032 185.903 47.4273 185.925 47.4581C185.947 47.4888 185.964 47.5256 185.976 47.5661C185.987 47.6066 185.993 47.6499 185.992 47.6934C185.981 47.8266 185.941 47.9518 185.878 48.0516C185.844 48.1134 185.816 48.1799 185.793 48.2501C185.777 48.3049 185.769 48.3636 185.77 48.4227C185.77 48.5805 185.809 48.7333 185.879 48.8564C185.956 48.9942 186.058 49.1007 186.174 49.1648C186.306 49.2374 186.447 49.2726 186.59 49.2685H186.614V46.4442L186.439 46.3014C186.272 46.166 186.145 46.0535 186.058 45.9641C185.973 45.8772 185.894 45.7787 185.822 45.6699C185.645 45.4053 185.547 45.0555 185.548 44.6925C185.547 44.4665 185.587 44.2439 185.665 44.0459C185.741 43.8483 185.853 43.6821 185.989 43.5636C186.178 43.4033 186.393 43.3126 186.614 43.2998ZM186.614 43.3949C186.495 43.4001 186.377 43.4367 186.268 43.5029C186.158 43.5791 186.068 43.7013 186.01 43.8525C185.944 44.0171 185.91 44.2032 185.911 44.3921C185.91 44.6224 185.961 44.8475 186.056 45.0353C186.106 45.1375 186.166 45.2291 186.235 45.3074C186.347 45.4239 186.463 45.5305 186.584 45.6267L186.614 45.6527V43.3949ZM186.753 49.2599C186.832 49.2505 186.911 49.2273 186.986 49.1907C187.047 49.1575 187.104 49.1107 187.155 49.0523C187.25 48.9385 187.324 48.7937 187.37 48.6306C187.423 48.4505 187.451 48.257 187.45 48.0618C187.437 47.7485 187.367 47.4452 187.244 47.1825C187.122 46.9198 186.953 46.7069 186.753 46.5653V49.2599Z" fill="white"/>
<path d="M134.187 258H0.351275C0.258111 258 0.168763 257.948 0.102886 257.856C0.037009 257.763 0 257.638 0 257.507C0 257.376 0.037009 257.251 0.102886 257.159C0.168763 257.066 0.258111 257.014 0.351275 257.014H134.187C134.28 257.014 134.37 257.066 134.436 257.159C134.501 257.251 134.538 257.376 134.538 257.507C134.538 257.638 134.501 257.763 134.436 257.856C134.37 257.948 134.28 258 134.187 258Z" fill="#CACACA"/>
</g>
<defs>
<clipPath id="clip0_44_158">
<rect width="295" height="258" fill="white"/>
</clipPath>
</defs>
</svg>
