<svg width="300" height="59" viewBox="0 0 122 29" fill="none" xmlns="http://www.w3.org/2000/svg">
<path d="M24.608 14.5C24.608 27.1545 24.6798 29 25.1466 29C25.6135 29 25.6853 27.1545 25.6853 14.5C25.6853 1.84544 25.6135 -1.49608e-05 25.1466 -1.49608e-05C24.6798 -1.49608e-05 24.608 1.84544 24.608 14.5Z" fill="#002A7C"/>
<path d="M5.57484 2.18441C5.57484 3.54026 5.50302 3.69091 4.2102 4.06753C3.45606 4.2935 2.37871 5.00909 1.80413 5.64935C0.870429 6.66623 0.726783 7.11818 0.726783 9.03896C0.726783 11.6377 1.51684 12.8052 4.03064 13.7844L5.57484 14.4247V19.4338C5.57484 24.3299 5.53893 24.4805 4.8207 24.4805C3.5997 24.4805 1.37319 21.8818 1.0859 20.1494C0.762694 18.0026 0.583137 17.626 0.18811 17.8896C-0.242828 18.1909 0.116287 20.9026 0.762694 22.2584C1.4091 23.6143 3.16877 25.1208 4.49749 25.4221C5.4671 25.6481 5.57484 25.7987 5.57484 27.1922C5.57484 29 6.4008 29 6.58036 27.1922C6.6881 26.1 6.79583 25.987 7.945 25.987C9.09417 25.987 9.16599 26.0623 9.16599 27.3052C9.16599 29.0377 9.8124 29 9.95604 27.2299C10.0638 25.987 10.2074 25.7987 11.5721 25.3468C12.398 25.0455 13.5831 24.2169 14.1936 23.5013C15.0914 22.4091 15.2709 21.8818 15.2709 20.3C15.2709 17.2117 14.1577 15.8558 10.5306 14.5753C9.95604 14.3494 9.88422 13.7844 9.88422 9.6039C9.88422 5.23506 9.92013 4.8961 10.5665 4.8961C11.7157 4.8961 13.4036 6.89221 13.8704 8.81299C14.0859 9.75455 14.4091 10.5455 14.5886 10.5455C15.1273 10.5455 14.9118 8.54935 14.2295 6.89221C13.6908 5.68701 13.1163 5.08441 11.7157 4.33117C10.0279 3.46493 9.88422 3.27662 9.88422 2.07143C9.88422 1.35584 9.74058 0.753243 9.52511 0.753243C9.34555 0.753243 9.16599 1.35584 9.16599 2.07143C9.16599 3.31428 9.09417 3.38961 7.945 3.38961C6.79583 3.38961 6.6881 3.27662 6.58036 2.18441C6.4008 0.37662 5.57484 0.37662 5.57484 2.18441ZM5.57484 8.88831V13.2571L4.60523 13.0312C3.02512 12.6169 1.62457 10.7714 1.62457 9.07662C1.62457 7.04286 3.02512 5.38571 5.50302 4.55714C5.53893 4.51948 5.57484 6.47792 5.57484 8.88831ZM9.16599 9.41559V14.3117L8.19638 14.0857C7.6218 13.9351 7.08312 13.7468 6.93948 13.6714C6.75992 13.5961 6.65218 11.487 6.65218 9.0013V4.51948H7.90909H9.16599V9.41559ZM8.23229 15.0649C9.16599 15.4416 9.16599 15.4416 9.16599 20.1494V24.8572H7.90909H6.65218V19.7727C6.65218 16.8727 6.79583 14.6883 6.97539 14.6883C7.15495 14.6883 7.72953 14.839 8.23229 15.0649ZM13.2599 17.2117C15.2709 19.3208 14.6245 22.6727 11.9671 24.0662C11.1411 24.4805 10.3511 24.7442 10.1715 24.6312C9.84831 24.4052 9.77649 16.0818 10.0997 15.7052C10.4588 15.3286 12.3262 16.1948 13.2599 17.2117Z" fill="#002A7C"/>
<path d="M44.1079 7.83378C43.2819 7.94677 43.2819 7.98443 43.2819 14.9143V21.8442H44.8979H46.514V14.9143C46.514 8.02209 46.514 7.98443 45.7239 7.83378C45.2571 7.75846 44.5388 7.75846 44.1079 7.83378Z" fill="#442C61"/>
<path d="M50.3924 7.83378L49.3869 7.94677V14.9143V21.8442H50.8234H52.2598V16.8351V11.8637L54.0913 16.1948C55.0968 18.5676 55.9946 20.8273 56.1024 21.1663C56.246 21.6935 56.7129 21.8442 58.2211 21.8442H60.1604V14.6507V7.45716L59.0112 7.72079C58.3648 7.87144 57.6825 8.2104 57.5388 8.43638C57.3952 8.66235 57.3233 10.9221 57.3593 13.4831C57.4311 16.0065 57.4311 18.0779 57.4311 18.0779C57.3952 18.0779 56.4256 15.8182 55.2764 13.0312C53.0499 7.60781 52.9781 7.53248 50.3924 7.83378Z" fill="#442C61"/>
<path d="M65.6189 8.17271C62.6382 9.71687 61.525 14.7636 63.2128 19.0571C64.3261 21.9195 68.025 22.8234 71.4366 21.1286C73.2321 20.187 73.4476 19.6597 72.4062 18.6805C71.7598 18.0779 71.6161 18.0779 70.6106 18.6052C69.3178 19.3208 67.7377 19.3584 66.9117 18.6805C65.5471 17.626 65.3675 12.3156 66.6244 10.7338C67.7736 9.30258 70.2156 10.6208 70.2156 12.6922C70.2156 13.4078 70.431 13.5584 71.2211 13.5584C72.5139 13.5584 73.0885 12.9558 73.0885 11.5623C73.0885 9.98051 72.5139 9.15193 70.9338 8.2857C69.246 7.3818 67.2349 7.34414 65.6189 8.17271Z" fill="#442C61"/>
<path d="M76.0692 7.83378C75.2432 7.94677 75.2432 7.98443 75.2432 14.9143V21.8442H76.8592H78.4753V18.8312V15.8182H80.4504H82.4255V18.8312V21.8442H84.0415H85.6576V14.9143C85.6576 7.26885 85.7294 7.49482 83.4311 7.83378C82.4614 7.98443 82.4255 8.05975 82.4255 10.5831V13.1818H80.4504H78.4753V10.5831C78.4753 8.2104 78.4034 7.98443 77.6852 7.83378C77.2184 7.75846 76.5001 7.75846 76.0692 7.83378Z" fill="#442C61"/>
<path d="M102.177 8.21035C100.202 9.30256 99.1962 11.6 99.1962 14.8389C99.2321 18.0779 99.9144 19.9233 101.495 21.1285C103.075 22.2961 105.696 22.3337 108.03 21.1285C109.862 20.187 110.077 19.6597 109.036 18.6805C108.39 18.0779 108.282 18.0779 107.204 18.6428C104.439 20.1493 102.464 18.5675 102.464 14.7636C102.464 11.8636 103.111 10.3948 104.439 10.2441C105.696 10.0935 106.414 10.6584 106.773 12.2026C107.097 13.4831 108.282 13.9727 109.215 13.1818C109.862 12.5792 109.862 10.5454 109.18 9.5662C107.923 7.64542 104.439 6.9675 102.177 8.21035Z" fill="#442C61"/>
<path d="M112.699 7.83378C111.873 7.94677 111.873 7.98443 111.873 14.9143V21.8442H113.489H115.105V18.8312C115.105 16.6468 115.213 15.8182 115.572 15.8182C116.506 15.8182 117.511 16.9481 117.942 18.5299C118.624 20.9779 119.271 21.8442 120.42 21.8442C122.287 21.8442 122.359 21.4676 121.21 18.2663C120.635 16.6091 119.845 15.0273 119.45 14.7637C118.804 14.274 118.804 14.1611 120.384 11.0727L122 7.90911H120.348H118.696L117.439 10.5455C115.751 14.0481 115.105 14.0481 115.105 10.5831C115.105 8.2104 115.033 7.98443 114.315 7.83378C113.848 7.75846 113.13 7.75846 112.699 7.83378Z" fill="#442C61"/>
<path d="M32.5085 14.8766V21.8442H34.1245H35.7405V19.0195V16.1948H37.8952H40.0499V14.8766V13.5585H37.8952H35.7405V12.052V10.5455H37.8593C40.6604 10.5455 41.1272 10.3195 41.1272 9.00131V7.90911H36.8179H32.5085V14.8766Z" fill="#442C61"/>
<path d="M88.8896 14.4247C88.8896 18.9818 89.0332 21.0909 89.3205 21.3922C89.6078 21.6935 91.0084 21.8442 93.199 21.8442C96.1078 21.8442 96.7901 21.7312 97.257 21.1663C97.6161 20.7896 97.8675 20.187 97.8675 19.8481C97.8675 19.2831 97.4365 19.2078 94.815 19.2078H91.7625V17.7013V16.1948H93.8813C95.641 16.1948 96.0719 16.0818 96.2515 15.4792C96.6824 14.0104 96.1078 13.5585 93.8813 13.5585H91.7625V12.052V10.5455H94.42C97.1852 10.5455 97.5084 10.3572 97.5084 8.62469C97.5084 7.94677 97.2211 7.90911 93.199 7.90911H88.8896V14.4247Z" fill="#442C61"/>
</svg>
