<svg width="53" height="43" viewBox="0 0 53 43" fill="none" xmlns="http://www.w3.org/2000/svg">
<g clip-path="url(#clip0_40_489)">
<path d="M37.7765 30.6375H24.5265V16.0886L35.9832 21.1807L37.7765 30.6375Z" fill="#2F2E41"/>
<path d="M26.9742 28.0697C31.7252 28.0697 35.5766 24.945 35.5766 21.0904C35.5766 17.2358 31.7252 14.1111 26.9742 14.1111C22.2232 14.1111 18.3718 17.2358 18.3718 21.0904C18.3718 24.945 22.2232 28.0697 26.9742 28.0697Z" fill="#FFB6B6"/>
<path d="M22.0358 29.1018L21.6472 25.9145L29.408 24.7371L33.9907 33.7898L26.0208 41.2258L20.3422 32.1732L22.0358 29.1018Z" fill="#FFB6B6"/>
<path d="M45.5322 36.4603C45.4355 36.5419 45.3369 36.6227 45.2383 36.7028C44.9255 36.9566 44.6067 37.2031 44.2809 37.4423C39.3993 41.0343 33.1359 43 26.5 43C20.3821 43 14.581 41.3293 9.88767 38.2538C9.88469 38.2522 9.88269 38.2506 9.8797 38.2482C9.73724 38.1552 9.59677 38.0607 9.4563 37.9645C9.4812 37.9063 9.50811 37.8489 9.53501 37.7923C11.0443 34.6021 14.0251 33.0413 15.8342 32.3583C16.7308 32.0196 17.3396 31.896 17.3396 31.896L19.4635 28.7922L20.9589 31.0554L22.0607 32.7236L26.5817 39.5673L30.482 31.6883L31.6904 29.2457L32.0002 28.6201L33.4737 29.5504L34.8684 30.4306L37.6768 30.9333L39.9552 31.3415L43.0495 31.896C44.3008 32.7228 45.0619 34.2957 45.4873 36.2501C45.5033 36.3196 45.5182 36.39 45.5322 36.4603Z" fill="#6C63FF"/>
<path d="M22.4492 13.1589C23.4971 11.7309 25.4216 10.751 27.4623 10.6066C29.503 10.4622 31.6075 11.1569 32.9443 12.4162C33.7409 13.1666 34.2632 14.0857 35.0397 14.8498C36.7106 16.4943 39.5598 17.4558 40.2898 19.5031C40.6083 20.3965 40.4496 21.3503 40.2884 22.271C40.1503 23.0602 40.0121 23.8494 39.874 24.6386C39.7665 25.2528 39.6634 25.9003 39.9472 26.4763C40.2803 27.1521 41.0772 27.5947 41.5925 28.1904C42.4693 29.2041 42.4052 30.6883 41.4431 31.6497C41.0259 32.0666 40.4727 32.3811 40.0353 32.7842C39.5979 33.1873 39.2734 33.7384 39.4566 34.2545C39.8076 35.2431 41.7185 35.4802 41.9281 36.4948C42.0353 37.0136 41.5937 37.5316 41.015 37.7689C40.4364 38.0061 39.7552 38.013 39.1116 37.9495C36.6655 37.7083 34.4007 36.4682 33.2097 34.7181C32.0188 32.9679 31.932 30.7522 32.9837 28.9443C33.8475 27.4594 35.4529 26.1472 35.4354 24.5053C35.4259 23.6108 34.9202 22.7753 34.4257 21.9758C33.4136 20.3394 32.4015 18.703 31.3894 17.0666C30.8472 16.19 30.2181 15.2454 29.1019 14.8689C28.2393 14.5778 27.2605 14.6907 26.3379 14.8097C25.4153 14.9288 24.4379 15.0446 23.5727 14.7587C22.7075 14.4727 22.0538 13.6231 22.466 12.9429" fill="#2F2E41"/>
<path d="M23.9567 13.2335C22.2947 12.7896 20.4303 13.5022 19.3052 14.5893C18.18 15.6764 17.6342 17.0712 17.1142 18.4266C16.8164 19.203 16.5186 19.9795 16.2207 20.7559C15.9406 21.4862 15.6604 22.2166 15.3802 22.947C15.0507 23.8061 14.7185 24.7188 14.9889 25.5913C15.1844 26.2221 15.6875 26.7949 15.6984 27.4453C15.7097 28.1247 15.1853 28.7212 14.7257 29.2892C14.2661 29.8572 13.8347 30.5321 14.0537 31.1879C14.3867 32.1855 16.0961 32.7338 16.0024 33.7645C15.9712 34.1085 15.726 34.4266 15.7304 34.7715C15.7361 35.2103 16.1596 35.5895 16.6557 35.7644C17.1518 35.9392 17.7099 35.9487 18.2507 35.941C19.9096 35.9173 21.5655 35.7575 23.1849 35.4647C23.8079 35.3521 24.4415 35.2139 24.9601 34.912C25.4788 34.61 25.8657 34.1098 25.7982 33.5948C25.693 32.7923 24.6295 32.337 24.0928 31.6575C23.5657 30.9901 23.5779 30.1445 23.3506 29.3736C23.0382 28.314 22.2666 27.3891 21.6874 26.4062C19.51 22.7111 20.2722 18.0012 23.5516 14.8875C23.8416 14.6121 24.1584 14.3352 24.2793 13.9866C24.4003 13.638 24.2444 13.1939 23.8241 13.072" fill="#2F2E41"/>
<path d="M45.2383 6.29723C40.2332 2.23648 33.5783 0 26.5 0C19.4217 0 12.7668 2.23648 7.76171 6.29723C2.7566 10.358 0 15.7572 0 21.5C0 26.7416 2.29633 31.6971 6.50445 35.61C6.90594 35.9842 7.32536 36.3487 7.76171 36.7028C7.86432 36.786 7.96793 36.8693 8.07254 36.9501C8.35149 37.1691 8.63541 37.3833 8.92433 37.591C9.09967 37.7179 9.27699 37.8424 9.45632 37.9645C9.59679 38.0607 9.73726 38.1552 9.87972 38.2482C9.88271 38.2506 9.8847 38.2522 9.88769 38.2538C14.581 41.3293 20.3821 43 26.5 43C33.136 43 39.3993 41.0343 44.2809 37.4423C44.6067 37.2031 44.9255 36.9566 45.2383 36.7028C45.3369 36.6227 45.4356 36.5419 45.5322 36.4603C45.8012 36.2356 46.0622 36.0068 46.3172 35.7749C50.6379 31.837 53 26.816 53 21.5C53 15.7572 50.2434 10.358 45.2383 6.29724L45.2383 6.29723ZM46.2525 35.5736C46.0034 35.8032 45.7484 36.0295 45.4874 36.2501C45.0809 36.5936 44.6615 36.9267 44.2281 37.2475C44.0637 37.3704 43.8974 37.49 43.729 37.6088C42.0284 38.8091 40.1355 39.834 38.0942 40.6504C37.378 40.9373 36.6437 41.1984 35.8926 41.4319C32.9746 42.3404 29.8075 42.8383 26.5 42.8383C23.308 42.8383 20.2476 42.3744 17.4153 41.5257C16.2527 41.1782 15.1289 40.7651 14.05 40.2923C13.8916 40.2228 13.7342 40.1525 13.5778 40.0805C12.7549 39.7023 11.9589 39.2892 11.1948 38.8431C10.6239 38.5109 10.07 38.1609 9.53502 37.7923C9.34773 37.6638 9.16243 37.5337 8.98011 37.4003C8.68323 37.1861 8.39233 36.9654 8.1084 36.7391C7.57043 36.3116 7.05637 35.8662 6.56523 35.4031C2.59919 31.6656 0.199248 26.8063 0.199248 21.5C0.199248 9.734 11.9977 0.161654 26.5 0.161654C41.0023 0.161654 52.8008 9.734 52.8008 21.5C52.8008 26.8879 50.3271 31.8151 46.2525 35.5736Z" fill="#3F3D56"/>
</g>
<defs>
<clipPath id="clip0_40_489">
<rect width="53" height="43" fill="white"/>
</clipPath>
</defs>
</svg>
